<svg xmlns="http://www.w3.org/2000/svg" xmlns:xlink="http://www.w3.org/1999/xlink" width="2000" zoomAndPan="magnify" viewBox="0 0 1500 1499.999933" height="2000" preserveAspectRatio="xMidYMid meet" version="1.0"><defs><g/><clipPath id="e015907efb"><path d="M 459.722656 694.164062 L 937.257812 694.164062 L 937.257812 826.914062 L 459.722656 826.914062 Z M 459.722656 694.164062 " clip-rule="nonzero"/></clipPath><clipPath id="292ef6aed0"><path d="M 526.207031 694.164062 L 870.769531 694.164062 C 907.492188 694.164062 937.257812 723.933594 937.257812 760.652344 C 937.257812 797.371094 907.492188 827.136719 870.769531 827.136719 L 526.207031 827.136719 C 489.488281 827.136719 459.722656 797.371094 459.722656 760.652344 C 459.722656 723.933594 489.488281 694.164062 526.207031 694.164062 Z M 526.207031 694.164062 " clip-rule="nonzero"/></clipPath><clipPath id="18da5aee46"><rect x="0" width="313" y="0" height="309"/></clipPath><clipPath id="bc187f70aa"><rect x="0" width="415" y="0" height="309"/></clipPath></defs><g clip-path="url(#e015907efb)"><g clip-path="url(#292ef6aed0)"><path stroke-linecap="butt" transform="matrix(0.75, 0, 0, 0.75, 459.714042, 694.16476)" fill="none" stroke-linejoin="miter" d="M 88.657333 -0.000930279 L 548.074068 -0.000930279 C 597.037617 -0.000930279 636.725123 39.691784 636.725123 88.650125 C 636.725123 137.608465 597.037617 177.295971 548.074068 177.295971 L 88.657333 177.295971 C 39.698992 177.295971 0.011486 137.608465 0.011486 88.650125 C 0.011486 39.691784 39.698992 -0.000930279 88.657333 -0.000930279 Z M 88.657333 -0.000930279 " stroke="#000000" stroke-width="40" stroke-opacity="1" stroke-miterlimit="4"/></g></g><g transform="matrix(1, 0, 0, 1, 150, 585)"><g clip-path="url(#18da5aee46)"><g fill="#000000" fill-opacity="1"><g transform="translate(0.00002043, 242.142298)"><g><path d="M 29.03125 -178.296875 L 47.890625 -178.296875 L 47.890625 -16.296875 L 147.734375 -16.296875 L 147.734375 0 L 29.03125 0 Z M 29.03125 -178.296875 "/></g></g></g><g fill="#000000" fill-opacity="1"><g transform="translate(150.015665, 242.142298)"><g><path d="M 79.984375 1.28125 C 67.078125 1.28125 55.441406 -1.644531 45.078125 -7.5 C 34.722656 -13.363281 26.570312 -21.472656 20.625 -31.828125 C 14.6875 -42.191406 11.71875 -53.910156 11.71875 -66.984375 C 11.71875 -80.054688 14.6875 -91.769531 20.625 -102.125 C 26.570312 -112.488281 34.722656 -120.554688 45.078125 -126.328125 C 55.441406 -132.109375 67.078125 -135 79.984375 -135 C 92.878906 -135 104.503906 -132.109375 114.859375 -126.328125 C 125.222656 -120.554688 133.332031 -112.488281 139.1875 -102.125 C 145.050781 -91.769531 147.984375 -80.054688 147.984375 -66.984375 C 147.984375 -53.910156 145.050781 -42.191406 139.1875 -31.828125 C 133.332031 -21.472656 125.222656 -13.363281 114.859375 -7.5 C 104.503906 -1.644531 92.878906 1.28125 79.984375 1.28125 Z M 79.984375 -14.765625 C 89.484375 -14.765625 98.007812 -16.929688 105.5625 -21.265625 C 113.125 -25.597656 119.023438 -31.753906 123.265625 -39.734375 C 127.515625 -47.710938 129.640625 -56.796875 129.640625 -66.984375 C 129.640625 -77.171875 127.515625 -86.253906 123.265625 -94.234375 C 119.023438 -102.222656 113.125 -108.378906 105.5625 -112.703125 C 98.007812 -117.035156 89.484375 -119.203125 79.984375 -119.203125 C 70.472656 -119.203125 61.9375 -117.035156 54.375 -112.703125 C 46.820312 -108.378906 40.878906 -102.222656 36.546875 -94.234375 C 32.222656 -86.253906 30.0625 -77.171875 30.0625 -66.984375 C 30.0625 -56.796875 32.222656 -47.710938 36.546875 -39.734375 C 40.878906 -31.753906 46.820312 -25.597656 54.375 -21.265625 C 61.9375 -16.929688 70.472656 -14.765625 79.984375 -14.765625 Z M 79.984375 -14.765625 "/></g></g></g></g></g><g transform="matrix(1, 0, 0, 1, 937, 585)"><g clip-path="url(#bc187f70aa)"><g fill="#000000" fill-opacity="1"><g transform="translate(1.611726, 242.142298)"><g><path d="M 94.234375 -135 C 106.804688 -135 118.1875 -132.148438 128.375 -126.453125 C 138.5625 -120.765625 146.539062 -112.742188 152.3125 -102.390625 C 158.082031 -92.035156 160.96875 -80.234375 160.96875 -66.984375 C 160.96875 -53.566406 158.082031 -41.679688 152.3125 -31.328125 C 146.539062 -20.972656 138.601562 -12.945312 128.5 -7.25 C 118.394531 -1.5625 106.972656 1.28125 94.234375 1.28125 C 83.367188 1.28125 73.5625 -0.96875 64.8125 -5.46875 C 56.070312 -9.96875 48.898438 -16.550781 43.296875 -25.21875 L 43.296875 49.40625 L 25.21875 49.40625 L 25.21875 -133.96875 L 42.53125 -133.96875 L 42.53125 -107.484375 C 47.96875 -116.316406 55.144531 -123.109375 64.0625 -127.859375 C 72.976562 -132.617188 83.035156 -135 94.234375 -135 Z M 92.96875 -14.765625 C 102.300781 -14.765625 110.789062 -16.929688 118.4375 -21.265625 C 126.082031 -25.597656 132.066406 -31.753906 136.390625 -39.734375 C 140.722656 -47.710938 142.890625 -56.796875 142.890625 -66.984375 C 142.890625 -77.171875 140.722656 -86.210938 136.390625 -94.109375 C 132.066406 -102.003906 126.082031 -108.160156 118.4375 -112.578125 C 110.789062 -116.992188 102.300781 -119.203125 92.96875 -119.203125 C 83.457031 -119.203125 74.921875 -116.992188 67.359375 -112.578125 C 59.804688 -108.160156 53.863281 -102.003906 49.53125 -94.109375 C 45.207031 -86.210938 43.046875 -77.171875 43.046875 -66.984375 C 43.046875 -56.796875 45.207031 -47.710938 49.53125 -39.734375 C 53.863281 -31.753906 59.804688 -25.597656 67.359375 -21.265625 C 74.921875 -16.929688 83.457031 -14.765625 92.96875 -14.765625 Z M 92.96875 -14.765625 "/></g></g></g><g fill="#000000" fill-opacity="1"><g transform="translate(174.295278, 242.142298)"><g/></g></g><g fill="#000000" fill-opacity="1"><g transform="translate(241.025493, 242.142298)"><g><path d="M 25.21875 -133.96875 L 43.296875 -133.96875 L 43.296875 0 L 25.21875 0 Z M 34.390625 -163.265625 C 30.648438 -163.265625 27.503906 -164.535156 24.953125 -167.078125 C 22.410156 -169.628906 21.140625 -172.6875 21.140625 -176.25 C 21.140625 -179.644531 22.410156 -182.613281 24.953125 -185.15625 C 27.503906 -187.707031 30.648438 -188.984375 34.390625 -188.984375 C 38.117188 -188.984375 41.253906 -187.753906 43.796875 -185.296875 C 46.347656 -182.835938 47.625 -179.910156 47.625 -176.515625 C 47.625 -172.773438 46.347656 -169.628906 43.796875 -167.078125 C 41.253906 -164.535156 38.117188 -163.265625 34.390625 -163.265625 Z M 34.390625 -163.265625 "/></g></g></g><g fill="#000000" fill-opacity="1"><g transform="translate(309.538572, 242.142298)"><g><path d="M 95.765625 -8.15625 C 92.367188 -5.09375 88.164062 -2.753906 83.15625 -1.140625 C 78.144531 0.472656 72.925781 1.28125 67.5 1.28125 C 54.925781 1.28125 45.242188 -2.113281 38.453125 -8.90625 C 31.660156 -15.707031 28.265625 -25.304688 28.265625 -37.703125 L 28.265625 -118.6875 L 4.328125 -118.6875 L 4.328125 -133.96875 L 28.265625 -133.96875 L 28.265625 -163.265625 L 46.359375 -163.265625 L 46.359375 -133.96875 L 87.109375 -133.96875 L 87.109375 -118.6875 L 46.359375 -118.6875 L 46.359375 -38.71875 C 46.359375 -30.738281 48.351562 -24.664062 52.34375 -20.5 C 56.332031 -16.34375 62.0625 -14.265625 69.53125 -14.265625 C 73.269531 -14.265625 76.878906 -14.859375 80.359375 -16.046875 C 83.835938 -17.234375 86.851562 -18.929688 89.40625 -21.140625 Z M 95.765625 -8.15625 "/></g></g></g></g></g></svg>